<svg viewBox="0 0 400 420" fill="none" xmlns="http://www.w3.org/2000/svg" aria-label="Carte Afrique de l'Ouest et Centrale">
  <!-- Simplified Afrique de l'Ouest et Centrale countries -->
  <!-- Mauritanie -->
  <path d="M60 60 L130 60 L140 100 L100 120 L60 110 Z" fill="#EAF2EC" stroke="#1D4F3A" stroke-width="1.2"/>
  <!-- Sénégal -->
  <path d="M60 110 L100 120 L95 145 L70 148 L55 130 Z" fill="#1D4F3A" stroke="#FAFAF8" stroke-width="1.2" opacity="0.85"/>
  <!-- Gambie -->
  <path d="M70 138 L95 135 L95 143 L70 146 Z" fill="#FDF8EE" stroke="#1D4F3A" stroke-width="0.8"/>
  <!-- Guinée-Bissau -->
  <path d="M55 148 L70 148 L72 165 L50 162 Z" fill="#EAF2EC" stroke="#1D4F3A" stroke-width="1"/>
  <!-- Guinée -->
  <path d="M70 148 L95 145 L105 155 L100 185 L75 190 L55 175 L72 165 Z" fill="#1D4F3A" stroke="#FAFAF8" stroke-width="1.2" opacity="0.75"/>
  <!-- Sierra Leone -->
  <path d="M55 175 L75 190 L70 210 L45 205 Z" fill="#EAF2EC" stroke="#1D4F3A" stroke-width="1"/>
  <!-- Liberia -->
  <path d="M70 205 L100 200 L105 225 L70 225 Z" fill="#EAF2EC" stroke="#1D4F3A" stroke-width="1"/>
  <!-- Côte d'Ivoire -->
  <path d="M100 155 L140 150 L155 165 L150 200 L100 200 L95 185 Z" fill="#1D4F3A" stroke="#FAFAF8" stroke-width="1.2" opacity="0.85"/>
  <!-- Mali -->
  <path d="M100 60 L200 60 L210 80 L200 120 L150 130 L130 120 L140 100 Z" fill="#EAF2EC" stroke="#1D4F3A" stroke-width="1.2"/>
  <!-- Burkina Faso -->
  <path d="M140 130 L195 125 L200 150 L150 155 Z" fill="#1D4F3A" stroke="#FAFAF8" stroke-width="1.2" opacity="0.7"/>
  <!-- Ghana -->
  <path d="M155 165 L195 160 L195 210 L150 210 Z" fill="#EAF2EC" stroke="#1D4F3A" stroke-width="1.2"/>
  <!-- Togo -->
  <path d="M195 160 L210 165 L210 215 L195 210 Z" fill="#EAF2EC" stroke="#1D4F3A" stroke-width="1"/>
  <!-- Bénin -->
  <path d="M210 155 L230 150 L232 200 L210 205 Z" fill="#1D4F3A" stroke="#FAFAF8" stroke-width="1.2" opacity="0.85"/>
  <!-- Niger -->
  <path d="M200 60 L310 55 L320 90 L290 120 L210 120 L200 80 Z" fill="#EAF2EC" stroke="#1D4F3A" stroke-width="1.2"/>
  <!-- Nigeria -->
  <path d="M230 150 L290 145 L300 185 L250 220 L210 210 Z" fill="#1D4F3A" stroke="#FAFAF8" stroke-width="1.5" opacity="0.9"/>
  <!-- Cameroun -->
  <path d="M290 145 L330 130 L345 160 L340 200 L300 210 L290 185 Z" fill="#1D4F3A" stroke="#FAFAF8" stroke-width="1.2" opacity="0.85"/>
  <!-- Tchad -->
  <path d="M290 80 L380 70 L380 140 L340 160 L320 130 L300 100 Z" fill="#EAF2EC" stroke="#1D4F3A" stroke-width="1.2"/>
  <!-- RCA -->
  <path d="M300 210 L340 200 L370 200 L365 240 L300 240 Z" fill="#1D4F3A" stroke="#FAFAF8" stroke-width="1.2" opacity="0.7"/>
  <!-- RDC (partiel) -->
  <path d="M300 245 L365 240 L370 310 L290 320 L270 280 Z" fill="#EAF2EC" stroke="#1D4F3A" stroke-width="1.2"/>
  <!-- Gabon -->
  <path d="M300 240 L340 240 L340 290 L300 285 Z" fill="#1D4F3A" stroke="#FAFAF8" stroke-width="1.2" opacity="0.8"/>
  <!-- Congo -->
  <path d="M265 230 L300 225 L300 285 L265 275 Z" fill="#EAF2EC" stroke="#1D4F3A" stroke-width="1.2"/>
  <!-- Guinée Equatoriale -->
  <path d="M300 220 L325 218 L325 238 L300 240 Z" fill="#EAF2EC" stroke="#1D4F3A" stroke-width="0.8"/>
  <!-- Labels -->
  <text x="196" y="190" font-family="Arial" font-size="9" fill="#FAFAF8" font-weight="bold" text-anchor="middle">Nigeria</text>
  <text x="78" y="130" font-family="Arial" font-size="8" fill="#FAFAF8" text-anchor="middle">Sénégal</text>
  <text x="120" y="182" font-family="Arial" font-size="8" fill="#FAFAF8" text-anchor="middle">Côte d'Ivoire</text>
  <text x="310" y="170" font-family="Arial" font-size="8" fill="#FAFAF8" text-anchor="middle">Cameroun</text>
  <text x="330" y="225" font-family="Arial" font-size="7" fill="#FAFAF8" text-anchor="middle">RCA</text>
  <text x="313" y="265" font-family="Arial" font-size="7" fill="#9C6A10" text-anchor="middle">Gabon</text>
  <!-- Légende -->
  <rect x="20" y="360" width="14" height="14" fill="#1D4F3A" rx="2"/>
  <text x="40" y="372" font-family="Arial" font-size="10" fill="#4A5568">INS partenaires cibles</text>
  <rect x="20" y="380" width="14" height="14" fill="#EAF2EC" stroke="#1D4F3A" stroke-width="1" rx="2"/>
  <text x="40" y="392" font-family="Arial" font-size="10" fill="#4A5568">Zone UEMOA/CEDEAO/CEMAC</text>
</svg>
