<svg viewBox="0 0 1200 700" xmlns="http://www.w3.org/2000/svg" preserveAspectRatio="xMaxYMid slice">
  <defs>
    <filter id="glow">
      <feGaussianBlur stdDeviation="3" result="coloredBlur"/>
      <feMerge><feMergeNode in="coloredBlur"/><feMergeNode in="SourceGraphic"/></feMerge>
    </filter>
  </defs>
  
  <g opacity="0.9">
    <polygon points="1047.9,165.0 970.0,210.0 892.1,165.0 892.1,75.0 970.0,30.0 1047.9,75.0" fill="#2A6B50" />
    <polygon points="1043.6,162.5 970.0,205.0 896.4,162.5 896.4,77.5 970.0,35.0 1043.6,77.5"  fill="#1D4F3A" />
    <text x="970" y="116.4" text-anchor="middle"
          font-family="Georgia,serif" font-size="12" font-weight="bold"
          fill="rgba(255,255,255,0.92)">statAfrikR</text>
    <text x="970" y="134.0" text-anchor="middle"
          font-family="'Courier New',monospace" font-size="10"
          fill="rgba(255,255,255,0.65)">v0.1.0</text>
  </g>

  <g opacity="0.85">
    <polygon points="1147.5,224.0 1080.0,263.0 1012.5,224.0 1012.5,146.0 1080.0,107.0 1147.5,146.0" fill="#1D4F3A" />
    <polygon points="1143.2,221.5 1080.0,258.0 1016.8,221.5 1016.8,148.5 1080.0,112.0 1143.2,148.5"  fill="#163D2C" />
    <text x="1080" y="181.7" text-anchor="middle"
          font-family="Georgia,serif" font-size="11" font-weight="bold"
          fill="rgba(255,255,255,0.92)">statAfrikR</text>
    <text x="1080" y="196.2" text-anchor="middle"
          font-family="'Courier New',monospace" font-size="8"
          fill="rgba(255,255,255,0.65)">CRAN</text>
  </g>

  <g opacity="0.8">
    <polygon points="1188.9,344.0 1130.0,378.0 1071.1,344.0 1071.1,276.0 1130.0,242.0 1188.9,276.0" fill="#2D4A5A" />
    <polygon points="1184.6,341.5 1130.0,373.0 1075.4,341.5 1075.4,278.5 1130.0,247.0 1184.6,278.5"  fill="#243547" />
    <text x="1130" y="307.3" text-anchor="middle"
          font-family="Georgia,serif" font-size="9" font-weight="bold"
          fill="rgba(255,255,255,0.92)">IDH · IPM</text>
    <text x="1130" y="319.8" text-anchor="middle"
          font-family="'Courier New',monospace" font-size="7"
          fill="rgba(255,255,255,0.65)">calcul_idh</text>
  </g>

  <g opacity="0.75">
    <polygon points="1113.7,466.0 1060.0,497.0 1006.3,466.0 1006.3,404.0 1060.0,373.0 1113.7,404.0" fill="#163D2C" />
    <polygon points="1109.4,463.5 1060.0,492.0 1010.6,463.5 1010.6,406.5 1060.0,378.0 1109.4,406.5"  fill="#1D4F3A" />
    <text x="1060" y="432.3" text-anchor="middle"
          font-family="Georgia,serif" font-size="9" font-weight="bold"
          fill="rgba(255,255,255,0.92)">Collecte</text>
    <text x="1060" y="444.8" text-anchor="middle"
          font-family="'Courier New',monospace" font-size="7"
          fill="rgba(255,255,255,0.65)">import_*()</text>
  </g>

  <g opacity="0.7">
    <polygon points="998.5,523.0 950.0,551.0 901.5,523.0 901.5,467.0 950.0,439.0 998.5,467.0" fill="#3A4F30" />
    <polygon points="994.2,520.5 950.0,546.0 905.8,520.5 905.8,469.5 950.0,444.0 994.2,469.5"  fill="#2D3A26" />
    <text x="950" y="492.3" text-anchor="middle"
          font-family="Georgia,serif" font-size="9" font-weight="bold"
          fill="rgba(255,255,255,0.92)">Diffusion</text>
    <text x="950" y="504.8" text-anchor="middle"
          font-family="'Courier New',monospace" font-size="7"
          fill="rgba(255,255,255,0.65)">SDMX · DDI</text>
  </g>

  <g opacity="0.65">
    <polygon points="892.4,476.0 830.0,512.0 767.6,476.0 767.6,404.0 830.0,368.0 892.4,404.0" fill="#243547" />
    <polygon points="888.0,473.5 830.0,507.0 772.0,473.5 772.0,406.5 830.0,373.0 888.0,406.5"  fill="#1B3040" />
    <text x="830" y="437.0" text-anchor="middle"
          font-family="Georgia,serif" font-size="10" font-weight="bold"
          fill="rgba(255,255,255,0.92)">Visualisation</text>
    <text x="830" y="451.2" text-anchor="middle"
          font-family="'Courier New',monospace" font-size="8"
          fill="rgba(255,255,255,0.65)">theme_ins()</text>
  </g>

  <g opacity="0.6">
    <polygon points="835.4,342.0 780.0,374.0 724.6,342.0 724.6,278.0 780.0,246.0 835.4,278.0" fill="#7A4D0A" />
    <polygon points="831.1,339.5 780.0,369.0 728.9,339.5 728.9,280.5 780.0,251.0 831.1,280.5"  fill="#9C6A10" />
    <text x="780" y="307.3" text-anchor="middle"
          font-family="Georgia,serif" font-size="9" font-weight="bold"
          fill="rgba(255,255,255,0.92)">statAfrik</text>
    <text x="780" y="319.8" text-anchor="middle"
          font-family="'Courier New',monospace" font-size="7"
          fill="rgba(255,255,255,0.65)">Poverty</text>
  </g>

  <g opacity="0.55">
    <polygon points="900.2,214.0 850.0,243.0 799.8,214.0 799.8,156.0 850.0,127.0 900.2,156.0" fill="#163D2C" />
    <polygon points="895.9,211.5 850.0,238.0 804.1,211.5 804.1,158.5 850.0,132.0 895.9,158.5"  fill="#1D4F3A" />
    <text x="850" y="182.3" text-anchor="middle"
          font-family="Georgia,serif" font-size="9" font-weight="bold"
          fill="rgba(255,255,255,0.92)">CEDEAO</text>
    <text x="850" y="194.8" text-anchor="middle"
          font-family="'Courier New',monospace" font-size="7"
          fill="rgba(255,255,255,0.65)">UEMOA · CEMAC</text>
  </g>

  <g opacity="0.5">
    <polygon points="1043.3,335.0 1000.0,360.0 956.7,335.0 956.7,285.0 1000.0,260.0 1043.3,285.0" fill="#1B2B3B" />
    <polygon points="1039.0,332.5 1000.0,355.0 961.0,332.5 961.0,287.5 1000.0,265.0 1039.0,287.5"  fill="#243547" />
    <text x="1000" y="307.3" text-anchor="middle"
          font-family="Georgia,serif" font-size="9" font-weight="bold"
          fill="rgba(255,255,255,0.92)">GPL-3</text>
    <text x="1000" y="319.8" text-anchor="middle"
          font-family="'Courier New',monospace" font-size="7"
          fill="rgba(255,255,255,0.65)">Open Source</text>
  </g>

  <g opacity="0.45">
    <polygon points="946.8,277.0 900.0,304.0 853.2,277.0 853.2,223.0 900.0,196.0 946.8,223.0" fill="#2A6B50" />
    <polygon points="942.4,274.5 900.0,299.0 857.6,274.5 857.6,225.5 900.0,201.0 942.4,225.5"  fill="#1D4F3A" />
    <text x="900" y="247.3" text-anchor="middle"
          font-family="Georgia,serif" font-size="9" font-weight="bold"
          fill="rgba(255,255,255,0.92)">Analyse</text>
    <text x="900" y="259.8" text-anchor="middle"
          font-family="'Courier New',monospace" font-size="7"
          fill="rgba(255,255,255,0.65)">Gini · FGT</text>
  </g>

  <g opacity="0.55">
    <polygon points="1152.0,90.0 1100.0,120.0 1048.0,90.0 1048.0,30.0 1100.0,0.0 1152.0,30.0" fill="#1D4F3A" />
    <polygon points="1147.6,87.5 1100.0,115.0 1052.4,87.5 1052.4,32.5 1100.0,5.0 1147.6,32.5"  fill="#163D2C" />
    <text x="1100" y="57.3" text-anchor="middle"
          font-family="Georgia,serif" font-size="9" font-weight="bold"
          fill="rgba(255,255,255,0.92)">statAfrik</text>
    <text x="1100" y="69.8" text-anchor="middle"
          font-family="'Courier New',monospace" font-size="7"
          fill="rgba(255,255,255,0.65)">Maps</text>
  </g>

  <g opacity="0.4">
    <polygon points="859.8,83.0 820.0,106.0 780.2,83.0 780.2,37.0 820.0,14.0 859.8,37.0" fill="#2D4A5A" />
    <polygon points="855.5,80.5 820.0,101.0 784.5,80.5 784.5,39.5 820.0,19.0 855.5,39.5"  fill="#243547" />
    <text x="820" y="57.3" text-anchor="middle"
          font-family="Georgia,serif" font-size="9" font-weight="bold"
          fill="rgba(255,255,255,0.92)">Traitement</text>
    <text x="820" y="69.8" text-anchor="middle"
          font-family="'Courier New',monospace" font-size="7"
          fill="rgba(255,255,255,0.65)">check_na()</text>
  </g>

  <g opacity="0.5">
    <polygon points="1215.0,456.0 1170.0,482.0 1125.0,456.0 1125.0,404.0 1170.0,378.0 1215.0,404.0" fill="#7A4D0A" />
    <polygon points="1210.7,453.5 1170.0,477.0 1129.3,453.5 1129.3,406.5 1170.0,383.0 1210.7,406.5"  fill="#9C6A10" />
    <text x="1170" y="427.3" text-anchor="middle"
          font-family="Georgia,serif" font-size="9" font-weight="bold"
          fill="rgba(255,255,255,0.92)">statAfrik</text>
    <text x="1170" y="439.8" text-anchor="middle"
          font-family="'Courier New',monospace" font-size="7"
          fill="rgba(255,255,255,0.65)">Survey</text>
  </g>

  <g opacity="0.45">
    <polygon points="741.6,204.0 700.0,228.0 658.4,204.0 658.4,156.0 700.0,132.0 741.6,156.0" fill="#163D2C" />
    <polygon points="737.2,201.5 700.0,223.0 662.8,201.5 662.8,158.5 700.0,137.0 737.2,158.5"  fill="#1D4F3A" />
    <text x="700" y="177.3" text-anchor="middle"
          font-family="Georgia,serif" font-size="9" font-weight="bold"
          fill="rgba(255,255,255,0.92)">Reproductibilité</text>
    <text x="700" y="189.8" text-anchor="middle"
          font-family="'Courier New',monospace" font-size="7"
          fill="rgba(255,255,255,0.65)">tidyverse</text>
  </g>

  <g opacity="0.4">
    <polygon points="988.1,602.0 950.0,624.0 911.9,602.0 911.9,558.0 950.0,536.0 988.1,558.0" fill="#243547" />
    <polygon points="983.8,599.5 950.0,619.0 916.2,599.5 916.2,560.5 950.0,541.0 983.8,560.5"  fill="#1B3040" />
    <text x="950" y="577.3" text-anchor="middle"
          font-family="Georgia,serif" font-size="9" font-weight="bold"
          fill="rgba(255,255,255,0.92)">RGPH · EDS</text>
    <text x="950" y="589.8" text-anchor="middle"
          font-family="'Courier New',monospace" font-size="7"
          fill="rgba(255,255,255,0.65)">CSPro · ODK</text>
  </g>
</svg>