<svg viewBox="0 0 697 515" xmlns="http://www.w3.org/2000/svg">
  <style>
    .hex-sticker {
      animation: hexFloat linear infinite;
      transform-origin: center;
    }
    @keyframes hexFloat {
      0%   { transform: translateY(0px) rotate(0deg); }
      25%  { transform: translateY(-8px) rotate(0.5deg); }
      50%  { transform: translateY(-14px) rotate(0deg); }
      75%  { transform: translateY(-6px) rotate(-0.5deg); }
      100% { transform: translateY(0px) rotate(0deg); }
    }
  </style>
  
  <g class="hex-sticker" style="animation-delay:0.0s;animation-duration:3.5s">
    <polygon points="126.9,102.0 68.0,136.0 9.1,102.0 9.1,34.0 68.0,0.0 126.9,34.0"   fill="#2A6B50"/>
    <polygon points="122.6,99.5 68.0,131.0 13.4,99.5 13.4,36.5 68.0,5.0 122.6,36.5" fill="#1D4F3A"/>
    <text x="68" y="64" text-anchor="middle"
          font-family="Georgia,serif" font-size="11" font-weight="bold"
          fill="rgba(255,255,255,0.92)">statAfrikR</text>
    <text x="68" y="78" text-anchor="middle"
          font-family="'Courier New',monospace" font-size="8"
          fill="rgba(255,255,255,0.60)">v0.1.0</text>
  </g>
  <g class="hex-sticker" style="animation-delay:0.3s;animation-duration:4.2s">
    <polygon points="245.9,102.0 187.0,136.0 128.1,102.0 128.1,34.0 187.0,0.0 245.9,34.0"   fill="#1D4F3A"/>
    <polygon points="241.6,99.5 187.0,131.0 132.4,99.5 132.4,36.5 187.0,5.0 241.6,36.5" fill="#163D2C"/>
    <text x="187" y="64" text-anchor="middle"
          font-family="Georgia,serif" font-size="11" font-weight="bold"
          fill="rgba(255,255,255,0.92)">statAfrikR</text>
    <text x="187" y="78" text-anchor="middle"
          font-family="'Courier New',monospace" font-size="8"
          fill="rgba(255,255,255,0.60)">CRAN</text>
  </g>
  <g class="hex-sticker" style="animation-delay:0.6s;animation-duration:4.9s">
    <polygon points="364.9,102.0 306.0,136.0 247.1,102.0 247.1,34.0 306.0,0.0 364.9,34.0"   fill="#243C52"/>
    <polygon points="360.6,99.5 306.0,131.0 251.4,99.5 251.4,36.5 306.0,5.0 360.6,36.5" fill="#1B3040"/>
    <text x="306" y="64" text-anchor="middle"
          font-family="Georgia,serif" font-size="11" font-weight="bold"
          fill="rgba(255,255,255,0.92)">Collecte</text>
    <text x="306" y="78" text-anchor="middle"
          font-family="'Courier New',monospace" font-size="8"
          fill="rgba(255,255,255,0.60)">import_*()</text>
  </g>
  <g class="hex-sticker" style="animation-delay:0.9s;animation-duration:5.6s">
    <polygon points="483.9,102.0 425.0,136.0 366.1,102.0 366.1,34.0 425.0,0.0 483.9,34.0"   fill="#2A6B50"/>
    <polygon points="479.6,99.5 425.0,131.0 370.4,99.5 370.4,36.5 425.0,5.0 479.6,36.5" fill="#1D4F3A"/>
    <text x="425" y="64" text-anchor="middle"
          font-family="Georgia,serif" font-size="11" font-weight="bold"
          fill="rgba(255,255,255,0.92)">Traitement</text>
    <text x="425" y="78" text-anchor="middle"
          font-family="'Courier New',monospace" font-size="8"
          fill="rgba(255,255,255,0.60)">check_na()</text>
  </g>
  <g class="hex-sticker" style="animation-delay:1.2s;animation-duration:3.5s">
    <polygon points="602.9,102.0 544.0,136.0 485.1,102.0 485.1,34.0 544.0,0.0 602.9,34.0"   fill="#1D4F3A"/>
    <polygon points="598.6,99.5 544.0,131.0 489.4,99.5 489.4,36.5 544.0,5.0 598.6,36.5" fill="#163D2C"/>
    <text x="544" y="64" text-anchor="middle"
          font-family="Georgia,serif" font-size="11" font-weight="bold"
          fill="rgba(255,255,255,0.92)">Analyse</text>
    <text x="544" y="78" text-anchor="middle"
          font-family="'Courier New',monospace" font-size="8"
          fill="rgba(255,255,255,0.60)">IDH · IPM</text>
  </g>
  <g class="hex-sticker" style="animation-delay:1.5s;animation-duration:4.2s">
    <polygon points="188.1,205.4 129.2,239.4 70.3,205.4 70.3,137.4 129.2,103.4 188.1,137.4"   fill="#243C52"/>
    <polygon points="183.8,202.9 129.2,234.4 74.6,202.9 74.6,139.9 129.2,108.4 183.8,139.9" fill="#1B3040"/>
    <text x="129" y="167" text-anchor="middle"
          font-family="Georgia,serif" font-size="11" font-weight="bold"
          fill="rgba(255,255,255,0.92)">Visualisation</text>
    <text x="129" y="182" text-anchor="middle"
          font-family="'Courier New',monospace" font-size="8"
          fill="rgba(255,255,255,0.60)">theme_ins()</text>
  </g>
  <g class="hex-sticker" style="animation-delay:1.8s;animation-duration:4.9s">
    <polygon points="307.1,205.4 248.2,239.4 189.3,205.4 189.3,137.4 248.2,103.4 307.1,137.4"   fill="#2A6B50"/>
    <polygon points="302.8,202.9 248.2,234.4 193.6,202.9 193.6,139.9 248.2,108.4 302.8,139.9" fill="#1D4F3A"/>
    <text x="248" y="167" text-anchor="middle"
          font-family="Georgia,serif" font-size="11" font-weight="bold"
          fill="rgba(255,255,255,0.92)">Diffusion</text>
    <text x="248" y="182" text-anchor="middle"
          font-family="'Courier New',monospace" font-size="8"
          fill="rgba(255,255,255,0.60)">SDMX · DDI</text>
  </g>
  <g class="hex-sticker" style="animation-delay:2.1s;animation-duration:5.6s">
    <polygon points="426.1,205.4 367.2,239.4 308.3,205.4 308.3,137.4 367.2,103.4 426.1,137.4"   fill="#B07A18"/>
    <polygon points="421.8,202.9 367.2,234.4 312.6,202.9 312.6,139.9 367.2,108.4 421.8,139.9" fill="#9C6A10"/>
    <text x="367" y="167" text-anchor="middle"
          font-family="Georgia,serif" font-size="11" font-weight="bold"
          fill="rgba(255,255,255,0.92)">Pauvreté</text>
    <text x="367" y="182" text-anchor="middle"
          font-family="'Courier New',monospace" font-size="8"
          fill="rgba(255,255,255,0.60)">FGT · Gini</text>
  </g>
  <g class="hex-sticker" style="animation-delay:2.4s;animation-duration:3.5s">
    <polygon points="545.1,205.4 486.2,239.4 427.3,205.4 427.3,137.4 486.2,103.4 545.1,137.4"   fill="#1D4F3A"/>
    <polygon points="540.8,202.9 486.2,234.4 431.6,202.9 431.6,139.9 486.2,108.4 540.8,139.9" fill="#163D2C"/>
    <text x="486" y="167" text-anchor="middle"
          font-family="Georgia,serif" font-size="11" font-weight="bold"
          fill="rgba(255,255,255,0.92)">Cartographie</text>
    <text x="486" y="182" text-anchor="middle"
          font-family="'Courier New',monospace" font-size="8"
          fill="rgba(255,255,255,0.60)">statAfrik
Maps</text>
  </g>
  <g class="hex-sticker" style="animation-delay:2.7s;animation-duration:4.2s">
    <polygon points="664.1,205.4 605.2,239.4 546.3,205.4 546.3,137.4 605.2,103.4 664.1,137.4"   fill="#243C52"/>
    <polygon points="659.8,202.9 605.2,234.4 550.6,202.9 550.6,139.9 605.2,108.4 659.8,139.9" fill="#1B3040"/>
    <text x="605" y="167" text-anchor="middle"
          font-family="Georgia,serif" font-size="11" font-weight="bold"
          fill="rgba(255,255,255,0.92)">CEDEAO</text>
    <text x="605" y="182" text-anchor="middle"
          font-family="'Courier New',monospace" font-size="8"
          fill="rgba(255,255,255,0.60)">UEMOA</text>
  </g>
  <g class="hex-sticker" style="animation-delay:3.0s;animation-duration:4.9s">
    <polygon points="126.9,308.7 68.0,342.7 9.1,308.7 9.1,240.7 68.0,206.7 126.9,240.7"   fill="#2A6B50"/>
    <polygon points="122.6,306.2 68.0,337.7 13.4,306.2 13.4,243.2 68.0,211.7 122.6,243.2" fill="#1D4F3A"/>
    <text x="68" y="270" text-anchor="middle"
          font-family="Georgia,serif" font-size="11" font-weight="bold"
          fill="rgba(255,255,255,0.92)">CEMAC</text>
    <text x="68" y="285" text-anchor="middle"
          font-family="'Courier New',monospace" font-size="8"
          fill="rgba(255,255,255,0.60)">COMESA</text>
  </g>
  <g class="hex-sticker" style="animation-delay:3.3s;animation-duration:5.6s">
    <polygon points="245.9,308.7 187.0,342.7 128.1,308.7 128.1,240.7 187.0,206.7 245.9,240.7"   fill="#1D4F3A"/>
    <polygon points="241.6,306.2 187.0,337.7 132.4,306.2 132.4,243.2 187.0,211.7 241.6,243.2" fill="#163D2C"/>
    <text x="187" y="270" text-anchor="middle"
          font-family="Georgia,serif" font-size="11" font-weight="bold"
          fill="rgba(255,255,255,0.92)">Recensement</text>
    <text x="187" y="285" text-anchor="middle"
          font-family="'Courier New',monospace" font-size="8"
          fill="rgba(255,255,255,0.60)">CSPro·ODK</text>
  </g>
  <g class="hex-sticker" style="animation-delay:3.6s;animation-duration:3.5s">
    <polygon points="364.9,308.7 306.0,342.7 247.1,308.7 247.1,240.7 306.0,206.7 364.9,240.7"   fill="#B07A18"/>
    <polygon points="360.6,306.2 306.0,337.7 251.4,306.2 251.4,243.2 306.0,211.7 360.6,243.2" fill="#9C6A10"/>
    <text x="306" y="270" text-anchor="middle"
          font-family="Georgia,serif" font-size="11" font-weight="bold"
          fill="rgba(255,255,255,0.92)">GPL-3</text>
    <text x="306" y="285" text-anchor="middle"
          font-family="'Courier New',monospace" font-size="8"
          fill="rgba(255,255,255,0.60)">Open Source</text>
  </g>
  <g class="hex-sticker" style="animation-delay:3.9s;animation-duration:4.2s">
    <polygon points="483.9,308.7 425.0,342.7 366.1,308.7 366.1,240.7 425.0,206.7 483.9,240.7"   fill="#243C52"/>
    <polygon points="479.6,306.2 425.0,337.7 370.4,306.2 370.4,243.2 425.0,211.7 479.6,243.2" fill="#1B3040"/>
    <text x="425" y="270" text-anchor="middle"
          font-family="Georgia,serif" font-size="11" font-weight="bold"
          fill="rgba(255,255,255,0.92)">Reproductible</text>
    <text x="425" y="285" text-anchor="middle"
          font-family="'Courier New',monospace" font-size="8"
          fill="rgba(255,255,255,0.60)">tidyverse</text>
  </g>
  <g class="hex-sticker" style="animation-delay:4.2s;animation-duration:4.9s">
    <polygon points="602.9,308.7 544.0,342.7 485.1,308.7 485.1,240.7 544.0,206.7 602.9,240.7"   fill="#2A6B50"/>
    <polygon points="598.6,306.2 544.0,337.7 489.4,306.2 489.4,243.2 544.0,211.7 598.6,243.2" fill="#1D4F3A"/>
    <text x="544" y="270" text-anchor="middle"
          font-family="Georgia,serif" font-size="11" font-weight="bold"
          fill="rgba(255,255,255,0.92)">Formation</text>
    <text x="544" y="285" text-anchor="middle"
          font-family="'Courier New',monospace" font-size="8"
          fill="rgba(255,255,255,0.60)">10 jours</text>
  </g>
  <g class="hex-sticker" style="animation-delay:4.5s;animation-duration:5.6s">
    <polygon points="188.1,412.1 129.2,446.1 70.3,412.1 70.3,344.1 129.2,310.1 188.1,344.1"   fill="#1D4F3A"/>
    <polygon points="183.8,409.6 129.2,441.1 74.6,409.6 74.6,346.6 129.2,315.1 183.8,346.6" fill="#163D2C"/>
    <text x="129" y="374" text-anchor="middle"
          font-family="Georgia,serif" font-size="11" font-weight="bold"
          fill="rgba(255,255,255,0.92)">Academy</text>
    <text x="129" y="388" text-anchor="middle"
          font-family="'Courier New',monospace" font-size="8"
          fill="rgba(255,255,255,0.60)">e-learning</text>
  </g>
  <g class="hex-sticker" style="animation-delay:4.8s;animation-duration:3.5s">
    <polygon points="307.1,412.1 248.2,446.1 189.3,412.1 189.3,344.1 248.2,310.1 307.1,344.1"   fill="#243C52"/>
    <polygon points="302.8,409.6 248.2,441.1 193.6,409.6 193.6,346.6 248.2,315.1 302.8,346.6" fill="#1B3040"/>
    <text x="248" y="374" text-anchor="middle"
          font-family="Georgia,serif" font-size="11" font-weight="bold"
          fill="rgba(255,255,255,0.92)">RGPH·EDS</text>
    <text x="248" y="388" text-anchor="middle"
          font-family="'Courier New',monospace" font-size="8"
          fill="rgba(255,255,255,0.60)">MICS·EHCVM</text>
  </g>
  <g class="hex-sticker" style="animation-delay:5.1s;animation-duration:4.2s">
    <polygon points="426.1,412.1 367.2,446.1 308.3,412.1 308.3,344.1 367.2,310.1 426.1,344.1"   fill="#B07A18"/>
    <polygon points="421.8,409.6 367.2,441.1 312.6,409.6 312.6,346.6 367.2,315.1 421.8,346.6" fill="#9C6A10"/>
    <text x="367" y="374" text-anchor="middle"
          font-family="Georgia,serif" font-size="11" font-weight="bold"
          fill="rgba(255,255,255,0.92)">statAfrik</text>
    <text x="367" y="388" text-anchor="middle"
          font-family="'Courier New',monospace" font-size="8"
          fill="rgba(255,255,255,0.60)">Survey</text>
  </g>
  <g class="hex-sticker" style="animation-delay:5.4s;animation-duration:4.9s">
    <polygon points="545.1,412.1 486.2,446.1 427.3,412.1 427.3,344.1 486.2,310.1 545.1,344.1"   fill="#2A6B50"/>
    <polygon points="540.8,409.6 486.2,441.1 431.6,409.6 431.6,346.6 486.2,315.1 540.8,346.6" fill="#1D4F3A"/>
    <text x="486" y="374" text-anchor="middle"
          font-family="Georgia,serif" font-size="11" font-weight="bold"
          fill="rgba(255,255,255,0.92)">Certif.</text>
    <text x="486" y="388" text-anchor="middle"
          font-family="'Courier New',monospace" font-size="8"
          fill="rgba(255,255,255,0.60)">Niv. 1·2·3</text>
  </g>
  <g class="hex-sticker" style="animation-delay:5.7s;animation-duration:5.6s">
    <polygon points="664.1,412.1 605.2,446.1 546.3,412.1 546.3,344.1 605.2,310.1 664.1,344.1"   fill="#1D4F3A"/>
    <polygon points="659.8,409.6 605.2,441.1 550.6,409.6 550.6,346.6 605.2,315.1 659.8,346.6" fill="#163D2C"/>
    <text x="605" y="374" text-anchor="middle"
          font-family="Georgia,serif" font-size="11" font-weight="bold"
          fill="rgba(255,255,255,0.92)">R ≥ 4.2</text>
    <text x="605" y="388" text-anchor="middle"
          font-family="'Courier New',monospace" font-size="8"
          fill="rgba(255,255,255,0.60)">Offline</text>
  </g>
</svg>