<svg viewBox="0 0 709 702" xmlns="http://www.w3.org/2000/svg" style="overflow:visible">
  <style>
    .hs{animation:hF var(--t) ease-in-out var(--d) infinite;transform-origin:center;
         filter:drop-shadow(0 6px 18px rgba(15,23,42,0.22)) drop-shadow(0 2px 6px rgba(15,23,42,0.12));}
    .hs:hover{filter:drop-shadow(0 10px 28px rgba(29,78,137,0.40)) brightness(1.08);cursor:default;}
    @keyframes hF{
      0%  {transform:translateY(0) rotate(0deg) scale(1);}
      25% {transform:translateY(calc(var(--a)*-0.55)) rotate(calc(var(--r)*0.4)) scale(1.012);}
      50% {transform:translateY(calc(var(--a)*-1)) rotate(0deg) scale(1.018);}
      75% {transform:translateY(calc(var(--a)*-0.55)) rotate(calc(var(--r)*-0.4)) scale(1.012);}
      100%{transform:translateY(0) rotate(0deg) scale(1);}
    }
  </style>
  
  <g class="hs" style="--d:0.00s;--t:4.2s;--a:8px;--r:0.50deg">
    <polygon points="201.9,133.0 124.0,178.0 46.1,133.0 46.1,43.0 124.0,-2.0 201.9,43.0" fill="rgba(255,255,255,0.5)"/>
    <polygon points="200.2,132.0 124.0,176.0 47.8,132.0 47.8,44.0 124.0,0.0 200.2,44.0"   fill="#16324F" opacity="0.97"/>
    <polygon points="195.9,129.5 124.0,171.0 52.1,129.5 52.1,46.5 124.0,5.0 195.9,46.5"  fill="#1D4E89"/>
    <text x="124" y="83" text-anchor="middle"
          font-family="Georgia,serif" font-size="14" font-weight="bold"
          fill="rgba(248,250,252,0.98)">statAfrikR</text>
    <text x="124" y="101" text-anchor="middle"
          font-family="'Courier New',monospace" font-size="9"
          fill="rgba(203,213,225,0.85)">v0.1.0</text>
  </g>
  <g class="hs" style="--d:0.22s;--t:4.8s;--a:13px;--r:0.75deg">
    <polygon points="319.7,127.0 252.2,166.0 184.6,127.0 184.6,49.0 252.2,10.0 319.7,49.0" fill="rgba(255,255,255,0.5)"/>
    <polygon points="318.0,126.0 252.2,164.0 186.3,126.0 186.3,50.0 252.2,12.0 318.0,50.0"   fill="#16324F" opacity="0.97"/>
    <polygon points="313.6,123.5 252.2,159.0 190.7,123.5 190.7,52.5 252.2,17.0 313.6,52.5"  fill="#245C73"/>
    <text x="252" y="84" text-anchor="middle"
          font-family="Georgia,serif" font-size="12" font-weight="bold"
          fill="rgba(248,250,252,0.98)">statAfrikR</text>
    <text x="252" y="99" text-anchor="middle"
          font-family="'Courier New',monospace" font-size="8"
          fill="rgba(203,213,225,0.85)">CRAN</text>
  </g>
  <g class="hs" style="--d:0.44s;--t:5.3s;--a:18px;--r:1.00deg">
    <polygon points="437.5,121.0 380.3,154.0 323.2,121.0 323.2,55.0 380.3,22.0 437.5,55.0" fill="rgba(255,255,255,0.5)"/>
    <polygon points="435.7,120.0 380.3,152.0 324.9,120.0 324.9,56.0 380.3,24.0 435.7,56.0"   fill="#1E4F47" opacity="0.97"/>
    <polygon points="431.4,117.5 380.3,147.0 329.2,117.5 329.2,58.5 380.3,29.0 431.4,58.5"  fill="#2F6F5F"/>
    <text x="380" y="84" text-anchor="middle"
          font-family="Georgia,serif" font-size="10" font-weight="bold"
          fill="rgba(248,250,252,0.98)">Collecte</text>
    <text x="380" y="98" text-anchor="middle"
          font-family="'Courier New',monospace" font-size="7"
          fill="rgba(203,213,225,0.85)">import_*()</text>
  </g>
  <g class="hs" style="--d:0.66s;--t:5.9s;--a:8px;--r:1.25deg">
    <polygon points="563.9,120.0 508.5,152.0 453.1,120.0 453.1,56.0 508.5,24.0 563.9,56.0" fill="rgba(255,255,255,0.5)"/>
    <polygon points="562.2,119.0 508.5,150.0 454.8,119.0 454.8,57.0 508.5,26.0 562.2,57.0"   fill="#16324F" opacity="0.97"/>
    <polygon points="557.8,116.5 508.5,145.0 459.1,116.5 459.1,59.5 508.5,31.0 557.8,59.5"  fill="#1D4E89"/>
    <text x="508" y="84" text-anchor="middle"
          font-family="Georgia,serif" font-size="10" font-weight="bold"
          fill="rgba(248,250,252,0.98)">Traitement</text>
    <text x="508" y="98" text-anchor="middle"
          font-family="'Courier New',monospace" font-size="7"
          fill="rgba(203,213,225,0.85)">check_na()</text>
  </g>
  <g class="hs" style="--d:0.88s;--t:6.4s;--a:13px;--r:0.50deg">
    <polygon points="251.2,235.6 188.8,271.6 126.4,235.6 126.4,163.6 188.8,127.6 251.2,163.6" fill="rgba(255,255,255,0.5)"/>
    <polygon points="249.4,234.6 188.8,269.6 128.2,234.6 128.2,164.6 188.8,129.6 249.4,164.6"   fill="#16324F" opacity="0.97"/>
    <polygon points="245.1,232.1 188.8,264.6 132.5,232.1 132.5,167.1 188.8,134.6 245.1,167.1"  fill="#245C73"/>
    <text x="189" y="196" text-anchor="middle"
          font-family="Georgia,serif" font-size="11" font-weight="bold"
          fill="rgba(248,250,252,0.98)">Analyse</text>
    <text x="189" y="209" text-anchor="middle"
          font-family="'Courier New',monospace" font-size="7"
          fill="rgba(203,213,225,0.85)">IDH · IPM</text>
  </g>
  <g class="hs" style="--d:1.10s;--t:4.2s;--a:18px;--r:0.75deg">
    <polygon points="370.7,230.6 317.0,261.6 263.3,230.6 263.3,168.6 317.0,137.6 370.7,168.6" fill="rgba(255,255,255,0.5)"/>
    <polygon points="368.9,229.6 317.0,259.6 265.0,229.6 265.0,169.6 317.0,139.6 368.9,169.6"   fill="#1E4F47" opacity="0.97"/>
    <polygon points="364.6,227.1 317.0,254.6 269.3,227.1 269.3,172.1 317.0,144.6 364.6,172.1"  fill="#2F6F5F"/>
    <text x="317" y="196" text-anchor="middle"
          font-family="Georgia,serif" font-size="10" font-weight="bold"
          fill="rgba(248,250,252,0.98)">Visualisation</text>
    <text x="317" y="209" text-anchor="middle"
          font-family="'Courier New',monospace" font-size="7"
          fill="rgba(203,213,225,0.85)">theme_ins()</text>
  </g>
  <g class="hs" style="--d:1.32s;--t:4.8s;--a:8px;--r:1.00deg">
    <polygon points="502.3,232.6 445.1,265.6 388.0,232.6 388.0,166.6 445.1,133.6 502.3,166.6" fill="rgba(255,255,255,0.5)"/>
    <polygon points="500.5,231.6 445.1,263.6 389.7,231.6 389.7,167.6 445.1,135.6 500.5,167.6"   fill="#0F2742" opacity="0.97"/>
    <polygon points="496.2,229.1 445.1,258.6 394.0,229.1 394.0,170.1 445.1,140.6 496.2,170.1"  fill="#16324F"/>
    <text x="445" y="196" text-anchor="middle"
          font-family="Georgia,serif" font-size="10" font-weight="bold"
          fill="rgba(248,250,252,0.98)">Diffusion</text>
    <text x="445" y="209" text-anchor="middle"
          font-family="'Courier New',monospace" font-size="7"
          fill="rgba(203,213,225,0.85)">SDMX·DDI</text>
  </g>
  <g class="hs" style="--d:1.54s;--t:5.3s;--a:13px;--r:1.25deg">
    <polygon points="637.4,236.6 573.3,273.6 509.2,236.6 509.2,162.6 573.3,125.6 637.4,162.6" fill="rgba(255,255,255,0.5)"/>
    <polygon points="635.6,235.6 573.3,271.6 510.9,235.6 510.9,163.6 573.3,127.6 635.6,163.6"   fill="#8A6020" opacity="0.97"/>
    <polygon points="631.3,233.1 573.3,266.6 515.3,233.1 515.3,166.1 573.3,132.6 631.3,166.1"  fill="#B8872F"/>
    <text x="573" y="195" text-anchor="middle"
          font-family="Georgia,serif" font-size="12" font-weight="bold"
          fill="rgba(248,250,252,0.98)">Pauvreté</text>
    <text x="573" y="211" text-anchor="middle"
          font-family="'Courier New',monospace" font-size="8"
          fill="rgba(203,213,225,0.85)">FGT·Gini</text>
  </g>
  <g class="hs" style="--d:1.76s;--t:5.9s;--a:18px;--r:0.50deg">
    <polygon points="177.7,342.2 124.0,373.2 70.3,342.2 70.3,280.2 124.0,249.2 177.7,280.2" fill="rgba(255,255,255,0.5)"/>
    <polygon points="176.0,341.2 124.0,371.2 72.0,341.2 72.0,281.2 124.0,251.2 176.0,281.2"   fill="#16324F" opacity="0.97"/>
    <polygon points="171.6,338.7 124.0,366.2 76.4,338.7 76.4,283.7 124.0,256.2 171.6,283.7"  fill="#245C73"/>
    <text x="124" y="308" text-anchor="middle"
          font-family="Georgia,serif" font-size="10" font-weight="bold"
          fill="rgba(248,250,252,0.98)">statAfrik</text>
    <text x="124" y="321" text-anchor="middle"
          font-family="'Courier New',monospace" font-size="7"
          fill="rgba(203,213,225,0.85)">Maps</text>
  </g>
  <g class="hs" style="--d:1.98s;--t:6.4s;--a:8px;--r:0.75deg">
    <polygon points="304.1,341.2 252.2,371.2 200.2,341.2 200.2,281.2 252.2,251.2 304.1,281.2" fill="rgba(255,255,255,0.5)"/>
    <polygon points="302.4,340.2 252.2,369.2 201.9,340.2 201.9,282.2 252.2,253.2 302.4,282.2"   fill="#1E4F47" opacity="0.97"/>
    <polygon points="298.1,337.7 252.2,364.2 206.3,337.7 206.3,284.7 252.2,258.2 298.1,284.7"  fill="#2F6F5F"/>
    <text x="252" y="308" text-anchor="middle"
          font-family="Georgia,serif" font-size="9" font-weight="bold"
          fill="rgba(248,250,252,0.98)">CEDEAO</text>
    <text x="252" y="321" text-anchor="middle"
          font-family="'Courier New',monospace" font-size="7"
          fill="rgba(203,213,225,0.85)">UEMOA</text>
  </g>
  <g class="hs" style="--d:2.20s;--t:4.2s;--a:13px;--r:1.00deg">
    <polygon points="430.5,340.2 380.3,369.2 330.1,340.2 330.1,282.2 380.3,253.2 430.5,282.2" fill="rgba(255,255,255,0.5)"/>
    <polygon points="428.8,339.2 380.3,367.2 331.8,339.2 331.8,283.2 380.3,255.2 428.8,283.2"   fill="#16324F" opacity="0.97"/>
    <polygon points="424.5,336.7 380.3,362.2 336.2,336.7 336.2,285.7 380.3,260.2 424.5,285.7"  fill="#1D4E89"/>
    <text x="380" y="308" text-anchor="middle"
          font-family="Georgia,serif" font-size="9" font-weight="bold"
          fill="rgba(248,250,252,0.98)">CEMAC</text>
    <text x="380" y="321" text-anchor="middle"
          font-family="'Courier New',monospace" font-size="7"
          fill="rgba(203,213,225,0.85)">COMESA</text>
  </g>
  <g class="hs" style="--d:2.42s;--t:4.8s;--a:18px;--r:1.25deg">
    <polygon points="560.4,341.2 508.5,371.2 456.5,341.2 456.5,281.2 508.5,251.2 560.4,281.2" fill="rgba(255,255,255,0.5)"/>
    <polygon points="558.7,340.2 508.5,369.2 458.3,340.2 458.3,282.2 508.5,253.2 558.7,282.2"   fill="#16324F" opacity="0.97"/>
    <polygon points="554.4,337.7 508.5,364.2 462.6,337.7 462.6,284.7 508.5,258.2 554.4,284.7"  fill="#245C73"/>
    <text x="508" y="308" text-anchor="middle"
          font-family="Georgia,serif" font-size="9" font-weight="bold"
          fill="rgba(248,250,252,0.98)">Recensement</text>
    <text x="508" y="321" text-anchor="middle"
          font-family="'Courier New',monospace" font-size="7"
          fill="rgba(203,213,225,0.85)">CSPro·ODK</text>
  </g>
  <g class="hs" style="--d:2.64s;--t:5.3s;--a:8px;--r:0.50deg">
    <polygon points="247.7,456.8 188.8,490.8 129.9,456.8 129.9,388.8 188.8,354.8 247.7,388.8" fill="rgba(255,255,255,0.5)"/>
    <polygon points="246.0,455.8 188.8,488.8 131.6,455.8 131.6,389.8 188.8,356.8 246.0,389.8"   fill="#8A6020" opacity="0.97"/>
    <polygon points="241.6,453.3 188.8,483.8 136.0,453.3 136.0,392.3 188.8,361.8 241.6,392.3"  fill="#B8872F"/>
    <text x="189" y="419" text-anchor="middle"
          font-family="Georgia,serif" font-size="11" font-weight="bold"
          fill="rgba(248,250,252,0.98)">GPL-3</text>
    <text x="189" y="433" text-anchor="middle"
          font-family="'Courier New',monospace" font-size="7"
          fill="rgba(203,213,225,0.85)">Open Source</text>
  </g>
  <g class="hs" style="--d:2.86s;--t:5.9s;--a:13px;--r:0.75deg">
    <polygon points="367.2,451.8 317.0,480.8 266.7,451.8 266.7,393.8 317.0,364.8 367.2,393.8" fill="rgba(255,255,255,0.5)"/>
    <polygon points="365.5,450.8 317.0,478.8 268.5,450.8 268.5,394.8 317.0,366.8 365.5,394.8"   fill="#1E4F47" opacity="0.97"/>
    <polygon points="361.1,448.3 317.0,473.8 272.8,448.3 272.8,397.3 317.0,371.8 361.1,397.3"  fill="#2F6F5F"/>
    <text x="317" y="420" text-anchor="middle"
          font-family="Georgia,serif" font-size="9" font-weight="bold"
          fill="rgba(248,250,252,0.98)">Formation</text>
    <text x="317" y="433" text-anchor="middle"
          font-family="'Courier New',monospace" font-size="7"
          fill="rgba(203,213,225,0.85)">10 jours</text>
  </g>
  <g class="hs" style="--d:3.08s;--t:6.4s;--a:18px;--r:1.00deg">
    <polygon points="493.6,450.8 445.1,478.8 396.6,450.8 396.6,394.8 445.1,366.8 493.6,394.8" fill="rgba(255,255,255,0.5)"/>
    <polygon points="491.9,449.8 445.1,476.8 398.4,449.8 398.4,395.8 445.1,368.8 491.9,395.8"   fill="#0F2742" opacity="0.97"/>
    <polygon points="487.6,447.3 445.1,471.8 402.7,447.3 402.7,398.3 445.1,373.8 487.6,398.3"  fill="#16324F"/>
    <text x="445" y="420" text-anchor="middle"
          font-family="Georgia,serif" font-size="9" font-weight="bold"
          fill="rgba(248,250,252,0.98)">Academy</text>
    <text x="445" y="433" text-anchor="middle"
          font-family="'Courier New',monospace" font-size="7"
          fill="rgba(203,213,225,0.85)">e-learning</text>
  </g>
  <g class="hs" style="--d:3.30s;--t:4.2s;--a:8px;--r:1.25deg">
    <polygon points="623.5,451.8 573.3,480.8 523.1,451.8 523.1,393.8 573.3,364.8 623.5,393.8" fill="rgba(255,255,255,0.5)"/>
    <polygon points="621.8,450.8 573.3,478.8 524.8,450.8 524.8,394.8 573.3,366.8 621.8,394.8"   fill="#16324F" opacity="0.97"/>
    <polygon points="617.4,448.3 573.3,473.8 529.1,448.3 529.1,397.3 573.3,371.8 617.4,397.3"  fill="#1D4E89"/>
    <text x="573" y="420" text-anchor="middle"
          font-family="Georgia,serif" font-size="9" font-weight="bold"
          fill="rgba(248,250,252,0.98)">RGPH·EDS</text>
    <text x="573" y="433" text-anchor="middle"
          font-family="'Courier New',monospace" font-size="7"
          fill="rgba(203,213,225,0.85)">MICS·EHCVM</text>
  </g>
  <g class="hs" style="--d:3.52s;--t:4.8s;--a:13px;--r:0.50deg">
    <polygon points="177.7,565.4 124.0,596.4 70.3,565.4 70.3,503.4 124.0,472.4 177.7,503.4" fill="rgba(255,255,255,0.5)"/>
    <polygon points="176.0,564.4 124.0,594.4 72.0,564.4 72.0,504.4 124.0,474.4 176.0,504.4"   fill="#8A6020" opacity="0.97"/>
    <polygon points="171.6,561.9 124.0,589.4 76.4,561.9 76.4,506.9 124.0,479.4 171.6,506.9"  fill="#B8872F"/>
    <text x="124" y="531" text-anchor="middle"
          font-family="Georgia,serif" font-size="10" font-weight="bold"
          fill="rgba(248,250,252,0.98)">statAfrik</text>
    <text x="124" y="544" text-anchor="middle"
          font-family="'Courier New',monospace" font-size="7"
          fill="rgba(203,213,225,0.85)">Survey</text>
  </g>
  <g class="hs" style="--d:3.74s;--t:5.3s;--a:18px;--r:0.75deg">
    <polygon points="298.9,561.4 252.2,588.4 205.4,561.4 205.4,507.4 252.2,480.4 298.9,507.4" fill="rgba(255,255,255,0.5)"/>
    <polygon points="297.2,560.4 252.2,586.4 207.1,560.4 207.1,508.4 252.2,482.4 297.2,508.4"   fill="#1E4F47" opacity="0.97"/>
    <polygon points="292.9,557.9 252.2,581.4 211.5,557.9 211.5,510.9 252.2,487.4 292.9,510.9"  fill="#2F6F5F"/>
    <text x="252" y="531" text-anchor="middle"
          font-family="Georgia,serif" font-size="9" font-weight="bold"
          fill="rgba(248,250,252,0.98)">Certif.</text>
    <text x="252" y="544" text-anchor="middle"
          font-family="'Courier New',monospace" font-size="7"
          fill="rgba(203,213,225,0.85)">Niv.1·2·3</text>
  </g>
  <g class="hs" style="--d:3.96s;--t:5.9s;--a:8px;--r:1.00deg">
    <polygon points="425.4,560.4 380.3,586.4 335.3,560.4 335.3,508.4 380.3,482.4 425.4,508.4" fill="rgba(255,255,255,0.5)"/>
    <polygon points="423.6,559.4 380.3,584.4 337.0,559.4 337.0,509.4 380.3,484.4 423.6,509.4"   fill="#16324F" opacity="0.97"/>
    <polygon points="419.3,556.9 380.3,579.4 341.3,556.9 341.3,511.9 380.3,489.4 419.3,511.9"  fill="#245C73"/>
    <text x="380" y="531" text-anchor="middle"
          font-family="Georgia,serif" font-size="9" font-weight="bold"
          fill="rgba(248,250,252,0.98)">R ≥ 4.2</text>
    <text x="380" y="544" text-anchor="middle"
          font-family="'Courier New',monospace" font-size="7"
          fill="rgba(203,213,225,0.85)">Offline</text>
  </g>
  <g class="hs" style="--d:4.18s;--t:6.4s;--a:13px;--r:1.25deg">
    <polygon points="553.5,560.4 508.5,586.4 463.4,560.4 463.4,508.4 508.5,482.4 553.5,508.4" fill="rgba(255,255,255,0.5)"/>
    <polygon points="551.8,559.4 508.5,584.4 465.2,559.4 465.2,509.4 508.5,484.4 551.8,509.4"   fill="#16324F" opacity="0.97"/>
    <polygon points="547.5,556.9 508.5,579.4 469.5,556.9 469.5,511.9 508.5,489.4 547.5,511.9"  fill="#1D4E89"/>
    <text x="508" y="531" text-anchor="middle"
          font-family="Georgia,serif" font-size="9" font-weight="bold"
          fill="rgba(248,250,252,0.98)">237 tests</text>
    <text x="508" y="544" text-anchor="middle"
          font-family="'Courier New',monospace" font-size="7"
          fill="rgba(203,213,225,0.85)">unitaires</text>
  </g>
</svg>