<svg viewBox="0 0 709 702" xmlns="http://www.w3.org/2000/svg" style="overflow:visible">
  <style>
    .hs{animation:hF var(--t) ease-in-out var(--d) infinite;transform-origin:center;
         filter:drop-shadow(0 4px 14px rgba(9,23,38,0.50));}
    .hs:hover{filter:drop-shadow(0 6px 22px rgba(27,73,101,0.65)) brightness(1.12);}
    @keyframes hF{
      0%  {transform:translateY(0) rotate(0deg) scale(1);}
      25% {transform:translateY(calc(var(--a)*-0.55)) rotate(calc(var(--r)*0.4)) scale(1.012);}
      50% {transform:translateY(calc(var(--a)*-1)) rotate(0deg) scale(1.018);}
      75% {transform:translateY(calc(var(--a)*-0.55)) rotate(calc(var(--r)*-0.4)) scale(1.012);}
      100%{transform:translateY(0) rotate(0deg) scale(1);}
    }
  </style>
  
  <g class="hs" style="--d:0.00s;--t:4.2s;--a:8px;--r:0.50deg">
    <polygon points="200.2,132.0 124.0,176.0 47.8,132.0 47.8,44.0 124.0,0.0 200.2,44.0"    fill="#1B4965" opacity="0.96"/>
    <polygon points="195.9,129.5 124.0,171.0 52.1,129.5 52.1,46.5 124.0,5.0 195.9,46.5" fill="#0F2742"/>
    <text x="124" y="83" text-anchor="middle"
          font-family="Georgia,serif" font-size="14" font-weight="bold"
          fill="rgba(245,247,250,0.96)">statAfrikR</text>
    <text x="124" y="101" text-anchor="middle"
          font-family="'Courier New',monospace" font-size="9"
          fill="rgba(200,211,221,0.70)">v0.1.0</text>
  </g>
  <g class="hs" style="--d:0.22s;--t:4.8s;--a:13px;--r:0.75deg">
    <polygon points="318.0,126.0 252.2,164.0 186.3,126.0 186.3,50.0 252.2,12.0 318.0,50.0"    fill="#2E5E7A" opacity="0.96"/>
    <polygon points="313.6,123.5 252.2,159.0 190.7,123.5 190.7,52.5 252.2,17.0 313.6,52.5" fill="#1B4965"/>
    <text x="252" y="84" text-anchor="middle"
          font-family="Georgia,serif" font-size="12" font-weight="bold"
          fill="rgba(245,247,250,0.96)">statAfrikR</text>
    <text x="252" y="99" text-anchor="middle"
          font-family="'Courier New',monospace" font-size="8"
          fill="rgba(200,211,221,0.70)">CRAN</text>
  </g>
  <g class="hs" style="--d:0.44s;--t:5.3s;--a:18px;--r:1.00deg">
    <polygon points="435.7,120.0 380.3,152.0 324.9,120.0 324.9,56.0 380.3,24.0 435.7,56.0"    fill="#3A8075" opacity="0.96"/>
    <polygon points="431.4,117.5 380.3,147.0 329.2,117.5 329.2,58.5 380.3,29.0 431.4,58.5" fill="#2E6F63"/>
    <text x="380" y="84" text-anchor="middle"
          font-family="Georgia,serif" font-size="10" font-weight="bold"
          fill="rgba(245,247,250,0.96)">Collecte</text>
    <text x="380" y="98" text-anchor="middle"
          font-family="'Courier New',monospace" font-size="7"
          fill="rgba(200,211,221,0.70)">import_*()</text>
  </g>
  <g class="hs" style="--d:0.66s;--t:5.9s;--a:8px;--r:1.25deg">
    <polygon points="562.2,119.0 508.5,150.0 454.8,119.0 454.8,57.0 508.5,26.0 562.2,57.0"    fill="#1B4965" opacity="0.96"/>
    <polygon points="557.8,116.5 508.5,145.0 459.1,116.5 459.1,59.5 508.5,31.0 557.8,59.5" fill="#0F2742"/>
    <text x="508" y="84" text-anchor="middle"
          font-family="Georgia,serif" font-size="10" font-weight="bold"
          fill="rgba(245,247,250,0.96)">Traitement</text>
    <text x="508" y="98" text-anchor="middle"
          font-family="'Courier New',monospace" font-size="7"
          fill="rgba(200,211,221,0.70)">check_na()</text>
  </g>
  <g class="hs" style="--d:0.88s;--t:6.4s;--a:13px;--r:0.50deg">
    <polygon points="249.4,234.6 188.8,269.6 128.2,234.6 128.2,164.6 188.8,129.6 249.4,164.6"    fill="#2E5E7A" opacity="0.96"/>
    <polygon points="245.1,232.1 188.8,264.6 132.5,232.1 132.5,167.1 188.8,134.6 245.1,167.1" fill="#1B4965"/>
    <text x="189" y="196" text-anchor="middle"
          font-family="Georgia,serif" font-size="11" font-weight="bold"
          fill="rgba(245,247,250,0.96)">Analyse</text>
    <text x="189" y="209" text-anchor="middle"
          font-family="'Courier New',monospace" font-size="7"
          fill="rgba(200,211,221,0.70)">IDH · IPM</text>
  </g>
  <g class="hs" style="--d:1.10s;--t:4.2s;--a:18px;--r:0.75deg">
    <polygon points="368.9,229.6 317.0,259.6 265.0,229.6 265.0,169.6 317.0,139.6 368.9,169.6"    fill="#3A8075" opacity="0.96"/>
    <polygon points="364.6,227.1 317.0,254.6 269.3,227.1 269.3,172.1 317.0,144.6 364.6,172.1" fill="#2E6F63"/>
    <text x="317" y="196" text-anchor="middle"
          font-family="Georgia,serif" font-size="10" font-weight="bold"
          fill="rgba(245,247,250,0.96)">Visualisation</text>
    <text x="317" y="209" text-anchor="middle"
          font-family="'Courier New',monospace" font-size="7"
          fill="rgba(200,211,221,0.70)">theme_ins()</text>
  </g>
  <g class="hs" style="--d:1.32s;--t:4.8s;--a:8px;--r:1.00deg">
    <polygon points="500.5,231.6 445.1,263.6 389.7,231.6 389.7,167.6 445.1,135.6 500.5,167.6"    fill="#1B4965" opacity="0.96"/>
    <polygon points="496.2,229.1 445.1,258.6 394.0,229.1 394.0,170.1 445.1,140.6 496.2,170.1" fill="#0F2742"/>
    <text x="445" y="196" text-anchor="middle"
          font-family="Georgia,serif" font-size="10" font-weight="bold"
          fill="rgba(245,247,250,0.96)">Diffusion</text>
    <text x="445" y="209" text-anchor="middle"
          font-family="'Courier New',monospace" font-size="7"
          fill="rgba(200,211,221,0.70)">SDMX · DDI</text>
  </g>
  <g class="hs" style="--d:1.54s;--t:5.3s;--a:13px;--r:1.25deg">
    <polygon points="635.6,235.6 573.3,271.6 510.9,235.6 510.9,163.6 573.3,127.6 635.6,163.6"    fill="#9F7427" opacity="0.96"/>
    <polygon points="631.3,233.1 573.3,266.6 515.3,233.1 515.3,166.1 573.3,132.6 631.3,166.1" fill="#B8872F"/>
    <text x="573" y="195" text-anchor="middle"
          font-family="Georgia,serif" font-size="12" font-weight="bold"
          fill="rgba(245,247,250,0.96)">Pauvreté</text>
    <text x="573" y="211" text-anchor="middle"
          font-family="'Courier New',monospace" font-size="8"
          fill="rgba(200,211,221,0.70)">FGT · Gini</text>
  </g>
  <g class="hs" style="--d:1.76s;--t:5.9s;--a:18px;--r:0.50deg">
    <polygon points="176.0,341.2 124.0,371.2 72.0,341.2 72.0,281.2 124.0,251.2 176.0,281.2"    fill="#2E5E7A" opacity="0.96"/>
    <polygon points="171.6,338.7 124.0,366.2 76.4,338.7 76.4,283.7 124.0,256.2 171.6,283.7" fill="#1B4965"/>
    <text x="124" y="308" text-anchor="middle"
          font-family="Georgia,serif" font-size="10" font-weight="bold"
          fill="rgba(245,247,250,0.96)">statAfrik</text>
    <text x="124" y="321" text-anchor="middle"
          font-family="'Courier New',monospace" font-size="7"
          fill="rgba(200,211,221,0.70)">Maps</text>
  </g>
  <g class="hs" style="--d:1.98s;--t:6.4s;--a:8px;--r:0.75deg">
    <polygon points="302.4,340.2 252.2,369.2 201.9,340.2 201.9,282.2 252.2,253.2 302.4,282.2"    fill="#3A8075" opacity="0.96"/>
    <polygon points="298.1,337.7 252.2,364.2 206.3,337.7 206.3,284.7 252.2,258.2 298.1,284.7" fill="#2E6F63"/>
    <text x="252" y="308" text-anchor="middle"
          font-family="Georgia,serif" font-size="9" font-weight="bold"
          fill="rgba(245,247,250,0.96)">CEDEAO</text>
    <text x="252" y="321" text-anchor="middle"
          font-family="'Courier New',monospace" font-size="7"
          fill="rgba(200,211,221,0.70)">UEMOA</text>
  </g>
  <g class="hs" style="--d:2.20s;--t:4.2s;--a:13px;--r:1.00deg">
    <polygon points="428.8,339.2 380.3,367.2 331.8,339.2 331.8,283.2 380.3,255.2 428.8,283.2"    fill="#1B4965" opacity="0.96"/>
    <polygon points="424.5,336.7 380.3,362.2 336.2,336.7 336.2,285.7 380.3,260.2 424.5,285.7" fill="#0F2742"/>
    <text x="380" y="308" text-anchor="middle"
          font-family="Georgia,serif" font-size="9" font-weight="bold"
          fill="rgba(245,247,250,0.96)">CEMAC</text>
    <text x="380" y="321" text-anchor="middle"
          font-family="'Courier New',monospace" font-size="7"
          fill="rgba(200,211,221,0.70)">COMESA</text>
  </g>
  <g class="hs" style="--d:2.42s;--t:4.8s;--a:18px;--r:1.25deg">
    <polygon points="558.7,340.2 508.5,369.2 458.3,340.2 458.3,282.2 508.5,253.2 558.7,282.2"    fill="#2E5E7A" opacity="0.96"/>
    <polygon points="554.4,337.7 508.5,364.2 462.6,337.7 462.6,284.7 508.5,258.2 554.4,284.7" fill="#1B4965"/>
    <text x="508" y="308" text-anchor="middle"
          font-family="Georgia,serif" font-size="9" font-weight="bold"
          fill="rgba(245,247,250,0.96)">Recensement</text>
    <text x="508" y="321" text-anchor="middle"
          font-family="'Courier New',monospace" font-size="7"
          fill="rgba(200,211,221,0.70)">CSPro·ODK</text>
  </g>
  <g class="hs" style="--d:2.64s;--t:5.3s;--a:8px;--r:0.50deg">
    <polygon points="246.0,455.8 188.8,488.8 131.6,455.8 131.6,389.8 188.8,356.8 246.0,389.8"    fill="#9F7427" opacity="0.96"/>
    <polygon points="241.6,453.3 188.8,483.8 136.0,453.3 136.0,392.3 188.8,361.8 241.6,392.3" fill="#B8872F"/>
    <text x="189" y="419" text-anchor="middle"
          font-family="Georgia,serif" font-size="11" font-weight="bold"
          fill="rgba(245,247,250,0.96)">GPL-3</text>
    <text x="189" y="433" text-anchor="middle"
          font-family="'Courier New',monospace" font-size="7"
          fill="rgba(200,211,221,0.70)">Open Source</text>
  </g>
  <g class="hs" style="--d:2.86s;--t:5.9s;--a:13px;--r:0.75deg">
    <polygon points="365.5,450.8 317.0,478.8 268.5,450.8 268.5,394.8 317.0,366.8 365.5,394.8"    fill="#3A8075" opacity="0.96"/>
    <polygon points="361.1,448.3 317.0,473.8 272.8,448.3 272.8,397.3 317.0,371.8 361.1,397.3" fill="#2E6F63"/>
    <text x="317" y="420" text-anchor="middle"
          font-family="Georgia,serif" font-size="9" font-weight="bold"
          fill="rgba(245,247,250,0.96)">Formation</text>
    <text x="317" y="433" text-anchor="middle"
          font-family="'Courier New',monospace" font-size="7"
          fill="rgba(200,211,221,0.70)">10 jours</text>
  </g>
  <g class="hs" style="--d:3.08s;--t:6.4s;--a:18px;--r:1.00deg">
    <polygon points="491.9,449.8 445.1,476.8 398.4,449.8 398.4,395.8 445.1,368.8 491.9,395.8"    fill="#1B4965" opacity="0.96"/>
    <polygon points="487.6,447.3 445.1,471.8 402.7,447.3 402.7,398.3 445.1,373.8 487.6,398.3" fill="#0F2742"/>
    <text x="445" y="420" text-anchor="middle"
          font-family="Georgia,serif" font-size="9" font-weight="bold"
          fill="rgba(245,247,250,0.96)">Academy</text>
    <text x="445" y="433" text-anchor="middle"
          font-family="'Courier New',monospace" font-size="7"
          fill="rgba(200,211,221,0.70)">e-learning</text>
  </g>
  <g class="hs" style="--d:3.30s;--t:4.2s;--a:8px;--r:1.25deg">
    <polygon points="621.8,450.8 573.3,478.8 524.8,450.8 524.8,394.8 573.3,366.8 621.8,394.8"    fill="#2E5E7A" opacity="0.96"/>
    <polygon points="617.4,448.3 573.3,473.8 529.1,448.3 529.1,397.3 573.3,371.8 617.4,397.3" fill="#1B4965"/>
    <text x="573" y="420" text-anchor="middle"
          font-family="Georgia,serif" font-size="9" font-weight="bold"
          fill="rgba(245,247,250,0.96)">RGPH·EDS</text>
    <text x="573" y="433" text-anchor="middle"
          font-family="'Courier New',monospace" font-size="7"
          fill="rgba(200,211,221,0.70)">MICS·EHCVM</text>
  </g>
  <g class="hs" style="--d:3.52s;--t:4.8s;--a:13px;--r:0.50deg">
    <polygon points="176.0,564.4 124.0,594.4 72.0,564.4 72.0,504.4 124.0,474.4 176.0,504.4"    fill="#9F7427" opacity="0.96"/>
    <polygon points="171.6,561.9 124.0,589.4 76.4,561.9 76.4,506.9 124.0,479.4 171.6,506.9" fill="#B8872F"/>
    <text x="124" y="531" text-anchor="middle"
          font-family="Georgia,serif" font-size="10" font-weight="bold"
          fill="rgba(245,247,250,0.96)">statAfrik</text>
    <text x="124" y="544" text-anchor="middle"
          font-family="'Courier New',monospace" font-size="7"
          fill="rgba(200,211,221,0.70)">Survey</text>
  </g>
  <g class="hs" style="--d:3.74s;--t:5.3s;--a:18px;--r:0.75deg">
    <polygon points="297.2,560.4 252.2,586.4 207.1,560.4 207.1,508.4 252.2,482.4 297.2,508.4"    fill="#3A8075" opacity="0.96"/>
    <polygon points="292.9,557.9 252.2,581.4 211.5,557.9 211.5,510.9 252.2,487.4 292.9,510.9" fill="#2E6F63"/>
    <text x="252" y="531" text-anchor="middle"
          font-family="Georgia,serif" font-size="9" font-weight="bold"
          fill="rgba(245,247,250,0.96)">Certif.</text>
    <text x="252" y="544" text-anchor="middle"
          font-family="'Courier New',monospace" font-size="7"
          fill="rgba(200,211,221,0.70)">Niv. 1·2·3</text>
  </g>
  <g class="hs" style="--d:3.96s;--t:5.9s;--a:8px;--r:1.00deg">
    <polygon points="423.6,559.4 380.3,584.4 337.0,559.4 337.0,509.4 380.3,484.4 423.6,509.4"    fill="#1B4965" opacity="0.96"/>
    <polygon points="419.3,556.9 380.3,579.4 341.3,556.9 341.3,511.9 380.3,489.4 419.3,511.9" fill="#0F2742"/>
    <text x="380" y="531" text-anchor="middle"
          font-family="Georgia,serif" font-size="9" font-weight="bold"
          fill="rgba(245,247,250,0.96)">R ≥ 4.2</text>
    <text x="380" y="544" text-anchor="middle"
          font-family="'Courier New',monospace" font-size="7"
          fill="rgba(200,211,221,0.70)">Offline</text>
  </g>
  <g class="hs" style="--d:4.18s;--t:6.4s;--a:13px;--r:1.25deg">
    <polygon points="551.8,559.4 508.5,584.4 465.2,559.4 465.2,509.4 508.5,484.4 551.8,509.4"    fill="#2E5E7A" opacity="0.96"/>
    <polygon points="547.5,556.9 508.5,579.4 469.5,556.9 469.5,511.9 508.5,489.4 547.5,511.9" fill="#1B4965"/>
    <text x="508" y="531" text-anchor="middle"
          font-family="Georgia,serif" font-size="9" font-weight="bold"
          fill="rgba(245,247,250,0.96)">237 tests</text>
    <text x="508" y="544" text-anchor="middle"
          font-family="'Courier New',monospace" font-size="7"
          fill="rgba(200,211,221,0.70)">unitaires</text>
  </g>
</svg>